<?xml version="1.0" encoding="UTF-8"?>
<svg xmlns="http://www.w3.org/2000/svg" version="1.1" viewBox="0 0 176.9 56.5">
  <defs>
    <style>
      .cls-1 {
        fill: #414a57;
      }
    </style>
  </defs>
  <!-- Generator: Adobe Illustrator 28.7.1, SVG Export Plug-In . SVG Version: 1.2.0 Build 142)  -->
  <g>
    <g id="Capa_1">
      <g>
        <path class="cls-1" d="M5.2,5.2c0,1.3-1,2.3-2.3,2.3S.5,6.4.5,5.2s1-2.3,2.4-2.3,2.3,1,2.3,2.3ZM1.1,5.2c0,1,.8,1.8,1.8,1.8s1.7-.8,1.7-1.8-.8-1.8-1.8-1.8-1.7.8-1.7,1.8ZM2.5,6.4h-.5v-2.3h.9c.4,0,.6,0,.8.2,0,0,.2.3.2.5s-.2.5-.5.5h0c.2,0,.3.3.4.6,0,.3,0,.5.2.6h-.6s0-.3-.2-.6c0-.2-.2-.3-.5-.3h-.2v.9h0ZM2.5,5.1h.2c.3,0,.5,0,.5-.3s-.2-.3-.5-.3h-.3v.7h0Z"/>
        <g>
          <path class="cls-1" d="M43.6,14.2L24.8,3.4c-.6-.3-1.2-.5-1.9-.5s-1.3.2-1.9.5L2.4,14.2c-1.2.7-1.9,1.9-1.9,3.2v21.7c0,1.3.7,2.6,1.9,3.2l18.8,10.8c.6.3,1.2.5,1.9.5s1.3-.2,1.9-.5l18.8-10.8c1.1-.7,1.9-1.9,1.9-3.2v-21.7c0-1.3-.7-2.6-1.9-3.2h-.2ZM44.2,39.1c0,.9-.5,1.7-1.2,2.1l-18.8,10.8c-.4.2-.8.3-1.2.3s-.9,0-1.2-.3L3,41.2c-.8-.4-1.2-1.3-1.2-2.1v-21.7c0-.9.5-1.7,1.2-2.1L21.7,4.5c.4-.2.8-.3,1.2-.3s.9.1,1.2.3l18.8,10.8c.8.4,1.2,1.3,1.2,2.1v21.7h0Z"/>
          <path class="cls-1" d="M42.6,15.9L23.9,5.1c-.3-.2-.6-.2-.9-.2s-.6,0-.9.2L3.3,15.9c-.5.3-.9.9-.9,1.5v21.7c0,.6.3,1.2.9,1.5l18.8,10.8c.3.2.6.2.9.2s.6,0,.9-.2l18.8-10.8c.5-.3.9-.9.9-1.5v-21.7c0-.6-.3-1.2-.9-1.6h0ZM33.3,17.8c0,1-.6,1.8-1.4,2.2v5.9c.8.4,1.4,1.2,1.4,2.2v.3c0,1-.6,1.8-1.4,2.2v5.9c.8.4,1.4,1.2,1.4,2.2v.3c0,1.4-1.1,2.5-2.5,2.5h-15.8c-1.4,0-2.5-1.1-2.5-2.5v-.3c0-1,.6-1.8,1.4-2.2v-5.9c-.8-.4-1.4-1.2-1.4-2.2v-.3c0-1,.6-1.8,1.4-2.2v-5.9c-.8-.4-1.4-1.2-1.4-2.2v-.3c0-1.4,1.1-2.5,2.5-2.5h15.8c1.4,0,2.5,1.1,2.5,2.5,0,0,0,.3,0,.3Z"/>
        </g>
        <g>
          <path class="cls-1" d="M61.1,32.5v.4c-1.5,2.3-3.3,3.5-5.9,3.3-1.7,0-3.2-.7-4.4-1.7-1.2-1.1-1.9-2.7-1.9-4.3s.5-3.2,1.9-4.4c1.2-1.2,2.8-1.9,4.6-1.9s2.4.3,3.5.9,1.7,1.5,2.1,2.4l.3.5h-1.7c-.9-1.5-2.3-2.3-4-2.4-1.2,0-2.3.4-3.3,1.3-1.1.9-1.5,2-1.5,3.3s.5,2.4,1.5,3.3c.9.9,2,1.3,3.3,1.3s3.2-.8,4.2-2.3h1.7-.3Z"/>
          <path class="cls-1" d="M74.5,30.1c0,1.7-.7,3.2-1.9,4.4-1.2,1.2-2.7,1.9-4.4,1.7-1.6,0-3.1-.7-4.2-1.9-1.2-1.2-1.7-2.7-1.7-4.3s.7-3.2,1.9-4.4c1.2-1.2,2.7-1.9,4.4-1.7,1.6,0,3.1.7,4.2,1.9,1.2,1.2,1.7,2.7,1.7,4.3ZM72.8,29.9c0-1.2-.5-2.3-1.3-3.2s-1.9-1.3-3.1-1.3-2.3.4-3.2,1.3-1.3,2-1.3,3.2.4,2.4,1.2,3.2c.8.9,1.9,1.5,3.1,1.5s2.4-.4,3.3-1.3,1.3-2.1,1.3-3.5h0Z"/>
          <path class="cls-1" d="M94.2,36h-1.6v-7.2c0-.9-.3-1.7-.8-2.4s-1.2-.9-2-.9-1.6.3-2.3.8c-.7.5-.9,1.3-.9,2.1v7.6h-1.6v-7.6c0-.8-.3-1.6-.9-2.1-.7-.5-1.3-.8-2.3-.8s-1.6.3-2,.9c-.5.7-.8,1.5-.8,2.4v7.2h-1.6v-7.1c0-1.5.4-2.7,1.2-3.6.8-.8,1.9-1.3,3.1-1.5,1.7-.1,3.1.5,4.2,2.1,1.1-1.6,2.4-2.3,4.2-2.1,1.3,0,2.3.5,3.1,1.5.8.9,1.3,2.1,1.3,3.6v7.1h-.1Z"/>
          <path class="cls-1" d="M109,30.1c0,1.6-.5,3.1-1.7,4.3s-2.5,1.9-4.2,1.9-3.2-.5-4.4-1.7c-1.2-1.2-1.9-2.7-1.9-4.4h0v-10h1.6v6c1.2-1.3,2.5-2,4.3-2.1,1.7,0,3.2.5,4.4,1.7,1.2,1.2,1.9,2.7,1.9,4.4ZM107.4,29.9c0-1.2-.5-2.3-1.3-3.2-.9-.9-2-1.3-3.2-1.3s-2.3.4-3.1,1.3c-.8.9-1.3,2-1.3,3.2s.4,2.4,1.3,3.5c.9.9,2,1.5,3.3,1.3,1.2,0,2.3-.5,3.1-1.5.8-.9,1.2-2,1.2-3.3Z"/>
          <path class="cls-1" d="M121.8,30.9c0,1.5-.5,2.8-1.5,3.9-.9,1.1-2.3,1.5-3.8,1.5s-2.8-.5-3.8-1.5c-.9-1.1-1.5-2.3-1.5-3.9v-6.7h1.6v7c0,.9.4,1.9,1.1,2.5s1.6,1.1,2.5,1.1,1.9-.4,2.5-1.1,1.1-1.6,1.1-2.5v-7h1.6v6.7Z"/>
          <path class="cls-1" d="M131.5,32.5c0,1.1-.3,2-1.1,2.8-.8.8-1.7,1.1-2.8,1.1s-1.9-.5-2.5-1.2c-.7-.7-1.1-1.6-1.1-2.7h1.6v.4c0,.4.3.8.7,1.2.4.4.9.7,1.5.7s1.2-.3,1.6-.5c.4-.4.5-.8.5-1.5,0-1.1-.5-1.7-1.7-2.1l-1.3-.4c-1.5-.4-2.3-1.5-2.3-2.9s.3-1.7.9-2.4,1.5-.9,2.4-1.1c.8,0,1.6.3,2.3.8.7.5,1.1,1.2,1.1,2.1v.4h-1.6v-.3c0-.4-.1-.8-.5-1.1s-.8-.4-1.2-.4-.8.1-1.2.5c-.3.3-.5.7-.5,1.2,0,.8.4,1.5,1.5,1.9l1.3.4c1.6.5,2.4,1.6,2.5,3.2h0Z"/>
          <path class="cls-1" d="M138.5,36.2c-2.8,0-4.3-1.2-4.3-3.6v-12.6h1.6v4.2h2.7v1.5h-2.7v6.7c0,1.7.9,2.7,2.7,2.7v1.3h0Z"/>
          <path class="cls-1" d="M142.4,22.8h-1.6v-2.8h1.6v2.8ZM142.4,36h-1.6v-11.8h1.6v11.8Z"/>
          <path class="cls-1" d="M157.3,30.1c0,1.6-.5,3.1-1.7,4.3-1.2,1.2-2.5,1.9-4.2,1.9s-3.2-.5-4.4-1.7c-1.2-1.2-1.9-2.7-1.9-4.4h0v-10h1.6v6c1.2-1.3,2.5-2,4.3-2.1,1.7,0,3.2.5,4.4,1.7,1.2,1.2,1.9,2.7,1.9,4.4h0ZM155.8,29.9c0-1.2-.5-2.3-1.3-3.2-.9-.9-2-1.3-3.2-1.3s-2.3.4-3.1,1.3c-.8.9-1.3,2-1.3,3.2s.4,2.4,1.3,3.5c.9.9,2,1.5,3.3,1.3,1.2,0,2.3-.5,3.1-1.5.8-.9,1.2-2,1.2-3.3Z"/>
          <path class="cls-1" d="M161.3,36h-1.6v-15.9h1.6s0,15.9,0,15.9Z"/>
          <path class="cls-1" d="M176.3,30.6h-10.6c0,1.2.7,2.1,1.5,2.9.9.8,1.9,1.2,3.1,1.2,1.9,0,3.2-.9,4-2.5h1.7c-.4,1.3-1.2,2.3-2.3,3.1-1.1.8-2.3,1.1-3.5,1.2-1.6,0-3.1-.5-4.3-1.7-1.2-1.2-1.9-2.7-1.9-4.3s.5-3.3,1.9-4.6c1.3-1.3,2.8-1.9,4.6-1.7,1.6,0,2.9.8,4.2,2,1.1,1.2,1.7,2.5,1.7,4v.8-.4ZM174.8,29.1c-.3-1.1-.8-2-1.6-2.7-.8-.7-1.7-1.1-2.9-1.1s-2.1.3-2.9,1.1c-.8.7-1.3,1.6-1.6,2.7h9.1,0Z"/>
        </g>
      </g>
    </g>
  </g>
</svg>