<?xml version="1.0" encoding="UTF-8"?>
<svg xmlns="http://www.w3.org/2000/svg" version="1.1" viewBox="0 0 150 150">
  <defs>
    <style>
      .cls-1 {
        fill: #fff;
      }
    </style>
  </defs>
  <!-- Generator: Adobe Illustrator 28.7.1, SVG Export Plug-In . SVG Version: 1.2.0 Build 142)  -->
  <g>
    <g id="Capa_1">
      <g>
        <path class="cls-1" d="M140.4,70.9v8.2c0,.3-.2.7-.2,1-1.1,14.3-6.4,27-15.8,37.8-10.1,11.6-22.9,18.8-38.1,21.5-2.4.4-4.8.7-7.2,1h-8.2c-.3,0-.7-.2-1-.2-11-.9-21.1-4.3-30.4-10.2C16.5,115.2,5,86.9,11.3,60.3,19.9,24,56.2,2.3,92.2,11.9c24.2,6.5,43.1,27.2,47.1,51.8.4,2.4.7,4.8,1,7.2ZM75,18.8c-31.1,0-56.3,25.3-56.2,56.3,0,31,25.2,56.1,56.2,56.2,31,0,56.3-25.2,56.2-56.2,0-31.1-25.2-56.3-56.3-56.2Z"/>
        <path class="cls-1" d="M73.2,42.2c4.5,0,8,.6,11.2,2.1,7.7,3.7,10.3,11.6,6.3,19.2-1.8,3.3-4.4,5.9-7.3,8.3-.8.6-1.5,1.2-2.2,1.9-1.9,1.8-2.9,4-3,6.7,0,.9,0,1.7,0,2.6,0,1.6-.8,2.6-2.3,3.1-.3,0-.6.2-.9.2-4.8.8-6.5-.6-6.6-5.4-.1-5.7,1.9-10.4,6.5-13.9,1.5-1.1,2.9-2.3,4.2-3.5,1.6-1.5,2.6-3.2,2.7-5.5,0-2.3-.9-3.9-2.9-5-4.4-2.3-9.8-1-12.6,3-1.8,2.6-3.5,3.2-6,2-2.3-1.1-3.4-3.5-2.5-6.2,1.2-4,4.1-6.4,7.8-8,2.8-1.2,5.8-1.6,7.8-1.6Z"/>
        <path class="cls-1" d="M79.7,98.9c0,3.7-3,6.7-6.6,6.7-3.5,0-6.5-3-6.5-6.5,0-3.7,2.8-6.7,6.4-6.7,3.7,0,6.7,2.9,6.7,6.5Z"/>
      </g>
    </g>
  </g>
</svg>